<svg width="28" height="27" viewBox="0 0 28 27" fill="none" xmlns="http://www.w3.org/2000/svg">
<path d="M25.3668 26.5291C25.7458 26.908 26.3602 26.908 26.7391 26.5291C27.1181 26.1501 27.1181 25.5357 26.7391 25.1567L25.3668 26.5291ZM26.7391 25.1567L19.6286 18.0461L18.2562 19.4185L25.3668 26.5291L26.7391 25.1567ZM20.8999 11.6217C20.8999 16.6299 16.84 20.6898 11.8318 20.6898V22.6306C17.9118 22.6306 22.8407 17.7018 22.8407 11.6217H20.8999ZM11.8318 20.6898C6.82364 20.6898 2.76372 16.6299 2.76372 11.6217H0.822949C0.822949 17.7018 5.75178 22.6306 11.8318 22.6306V20.6898ZM2.76372 11.6217C2.76372 6.61356 6.82364 2.55364 11.8318 2.55364V0.612866C5.75178 0.612866 0.822949 5.5417 0.822949 11.6217H2.76372ZM11.8318 2.55364C16.84 2.55364 20.8999 6.61356 20.8999 11.6217H22.8407C22.8407 5.5417 17.9118 0.612866 11.8318 0.612866V2.55364Z" fill="white"/>
</svg>
