<svg width="22" height="25" viewBox="0 0 22 25" fill="none" xmlns="http://www.w3.org/2000/svg">
<path d="M16.8488 24.8429V5.42931H0.858215V24.8429H4.58285V23.6912C4.58285 22.243 5.71855 21.0626 7.09382 21.0626H10.6129C11.99 21.0626 13.1335 22.243 13.1335 23.6912V24.8429H16.8488ZM5.27347 17.9025C5.27347 18.0055 5.25495 18.1126 5.21761 18.2078C5.18027 18.3029 5.128 18.3908 5.05899 18.4639C4.98999 18.5367 4.90665 18.5918 4.81614 18.6312C4.72593 18.6706 4.62467 18.6901 4.52669 18.6901H2.7625C2.66482 18.6901 2.56356 18.6706 2.47305 18.6312C2.38284 18.5918 2.2995 18.5367 2.2305 18.4639C2.16119 18.3911 2.10922 18.3032 2.07188 18.2078C2.03454 18.1126 2.01572 18.0058 2.01572 17.9025V16.0615C2.01572 15.9585 2.03424 15.8517 2.07188 15.7562C2.10922 15.6611 2.16149 15.5732 2.2305 15.5001C2.2995 15.4273 2.38284 15.3722 2.47305 15.3328C2.56356 15.2935 2.66482 15.2736 2.7625 15.2736H4.52669C4.62437 15.2736 4.72563 15.2931 4.81614 15.3328C4.90635 15.3722 4.98969 15.4273 5.05899 15.5001C5.128 15.5732 5.18027 15.6608 5.21761 15.7562C5.25495 15.8514 5.27347 15.9582 5.27347 16.0615V17.9025ZM5.27347 12.4582C5.27347 12.5612 5.25495 12.668 5.21761 12.7635C5.18027 12.8586 5.128 12.9465 5.05899 13.0193C4.98999 13.0924 4.90665 13.1472 4.81614 13.1866C4.72593 13.2259 4.62467 13.2458 4.52669 13.2458H2.7625C2.66482 13.2458 2.56356 13.2262 2.47305 13.1866C2.38284 13.1472 2.2995 13.092 2.2305 13.0193C2.16119 12.9465 2.10922 12.8586 2.07188 12.7635C2.03454 12.6683 2.01572 12.5612 2.01572 12.4582V10.6074C2.01572 10.5044 2.03424 10.4074 2.07188 10.3119C2.10922 10.2168 2.16149 10.1289 2.2305 10.0558C2.2995 9.98303 2.38284 9.91814 2.47305 9.87844C2.56356 9.83907 2.66482 9.81922 2.7625 9.81922H4.52669C4.62437 9.81922 4.72563 9.83875 4.81614 9.87844C4.90635 9.91782 4.98969 9.98272 5.05899 10.0558C5.128 10.1286 5.18027 10.2165 5.21761 10.3119C5.25495 10.4071 5.27347 10.5041 5.27347 10.6074V12.4582ZM7.22465 10.5189C7.22465 10.4159 7.24317 10.3091 7.28081 10.2136C7.31815 10.1185 7.37042 10.0306 7.43943 9.95752C7.50873 9.88474 7.59177 9.82962 7.68228 9.79024C7.77249 9.75086 7.87405 9.73133 7.97173 9.73133H9.54922C9.6469 9.73133 9.74817 9.75086 9.83868 9.79024C9.92889 9.82962 10.0122 9.88474 10.0815 9.95752C10.1505 10.0303 10.2028 10.1182 10.2401 10.2136C10.2775 10.3088 10.2963 10.4156 10.2963 10.5189V12.1728C10.2963 12.2758 10.2778 12.3728 10.2401 12.468C10.2028 12.5631 10.1505 12.651 10.0815 12.7241C10.0125 12.7969 9.92918 12.8618 9.83868 12.9011C9.74846 12.9405 9.6469 12.9604 9.54922 12.9604H7.97173C7.87405 12.9604 7.77249 12.9408 7.68228 12.9011C7.59207 12.8618 7.50873 12.7969 7.43943 12.7241C7.37042 12.6513 7.31815 12.5634 7.28081 12.468C7.24347 12.3728 7.22465 12.2758 7.22465 12.1728V10.5189ZM10.3423 17.6663C10.3423 17.7693 10.3238 17.8663 10.2861 17.9617C10.2488 18.0569 10.1965 18.1448 10.1275 18.2175C10.0585 18.2906 9.97519 18.3552 9.88498 18.3949C9.79447 18.4343 9.6932 18.4538 9.59552 18.4538H7.97113C7.87345 18.4538 7.77189 18.4343 7.68168 18.3949C7.59147 18.3555 7.50813 18.2906 7.43883 18.2175C7.36983 18.1448 7.31755 18.0569 7.28021 17.9617C7.24287 17.8666 7.22405 17.7696 7.22405 17.6663V15.9632C7.22405 15.8602 7.24257 15.7534 7.28021 15.6579C7.31755 15.5628 7.36983 15.4749 7.43883 15.4021C7.50813 15.3294 7.59117 15.2742 7.68168 15.2349C7.77189 15.1955 7.87345 15.1756 7.97113 15.1756H9.59552C9.6932 15.1756 9.79447 15.1952 9.88498 15.2349C9.97519 15.2742 10.0585 15.3294 10.1275 15.4021C10.1968 15.4749 10.2488 15.5628 10.2861 15.6579C10.3235 15.7534 10.3423 15.8602 10.3423 15.9632V17.6663ZM12.4333 10.6074C12.4333 10.5044 12.4518 10.4074 12.4894 10.3119C12.5268 10.2168 12.5791 10.1289 12.6481 10.0558C12.7171 9.98303 12.8004 9.91814 12.8906 9.87844C12.9811 9.83907 13.0824 9.81922 13.1801 9.81922H14.9443C15.0419 9.81922 15.1432 9.83875 15.2337 9.87844C15.3239 9.91782 15.4073 9.98272 15.4766 10.0558C15.5456 10.1286 15.5978 10.2165 15.6352 10.3119C15.6725 10.4071 15.691 10.5041 15.691 10.6074V12.4582C15.691 12.5612 15.6725 12.668 15.6352 12.7635C15.5978 12.8586 15.5456 12.9465 15.4766 13.0193C15.4076 13.0924 15.3242 13.1472 15.2337 13.1866C15.1435 13.2259 15.0419 13.2458 14.9443 13.2458H13.1801C13.0824 13.2458 12.9811 13.2262 12.8906 13.1866C12.8004 13.1472 12.7171 13.092 12.6481 13.0193C12.5788 12.9465 12.5268 12.8586 12.4894 12.7635C12.4521 12.6683 12.4333 12.5612 12.4333 12.4582V10.6074ZM12.8909 18.6309C12.8007 18.5915 12.7174 18.5364 12.6484 18.4636C12.5791 18.3908 12.5271 18.3029 12.4897 18.2075C12.4524 18.1123 12.4336 18.0055 12.4336 17.9022V16.0615C12.4336 15.9585 12.4521 15.8517 12.4897 15.7562C12.5271 15.6611 12.5794 15.5732 12.6484 15.5001C12.7174 15.4273 12.8007 15.3722 12.8909 15.3328C12.9814 15.2935 13.0827 15.2736 13.1804 15.2736H14.9446C15.0422 15.2736 15.1435 15.2931 15.234 15.3328C15.3242 15.3722 15.4076 15.4273 15.4769 15.5001C15.5459 15.5732 15.5981 15.6608 15.6355 15.7562C15.6728 15.8514 15.6913 15.9582 15.6913 16.0615V17.9025C15.6913 18.0055 15.6728 18.1126 15.6355 18.2078C15.5981 18.3029 15.5459 18.3908 15.4769 18.4639C15.4079 18.5367 15.3245 18.5918 15.234 18.6312C15.1438 18.6706 15.0422 18.6901 14.9446 18.6901H13.1801C13.0824 18.6901 12.9811 18.6702 12.8909 18.6309Z" fill="white"/>
<path d="M20.2201 0.583252H4.81882L1.8574 3.85324H17.2482L20.2201 0.583252Z" fill="white"/>
<path d="M18.3418 23.6635L21.2363 20.4672V1.74161L18.3418 4.92654V23.6635Z" fill="white"/>
<path d="M7.09231 22.6342C6.52595 22.6342 6.07371 23.1121 6.07371 23.6927V24.8404H11.6357V23.6927C11.6357 23.1121 11.1847 22.6342 10.6141 22.6342H7.09231Z" fill="white"/>
</svg>
