<svg width="25" height="25" viewBox="0 0 25 25" fill="none" xmlns="http://www.w3.org/2000/svg">
<path d="M7.08725 23.3799L5.61371 24.8429L0.355347 19.7558L4.12272 16.0426C4.88567 15.285 5.84842 14.7566 6.90032 14.5179C7.95222 14.2793 9.05059 14.3401 10.0692 14.6935L10.897 14.9806H15.9758C16.1906 14.9805 16.4033 15.0233 16.6011 15.1063C16.7989 15.1894 16.9779 15.3111 17.1275 15.4642C17.277 15.6173 17.394 15.7986 17.4716 15.9975C17.5492 16.1964 17.5857 16.4087 17.579 16.6218C17.5546 17.0432 17.3672 17.4389 17.0559 17.7263C16.7446 18.0137 16.3336 18.1705 15.9085 18.1641H12.8617C12.6964 18.1641 12.5379 18.2293 12.421 18.3453C12.3041 18.4614 12.2384 18.6188 12.2384 18.7829C12.2384 18.9471 12.3041 19.1045 12.421 19.2205C12.5379 19.3366 12.6964 19.4018 12.8617 19.4018H15.9185C16.6641 19.4054 17.3826 19.1242 17.9252 18.6164C18.4678 18.1086 18.7929 17.4131 18.8332 16.6738C18.8332 16.6615 18.8332 16.6491 18.8332 16.6342L21.6606 13.473C21.9478 13.1421 22.3523 12.9338 22.7902 12.8914C23.2281 12.849 23.6656 12.9758 24.0117 13.2453C24.1831 13.3862 24.3242 13.5596 24.4269 13.7555C24.5296 13.9514 24.5917 14.1658 24.6096 14.3859C24.6275 14.606 24.6008 14.8275 24.5311 15.0372C24.4614 15.2469 24.3501 15.4406 24.2037 15.6069L18.5589 22.0431C18.1863 22.4671 17.7264 22.8068 17.2102 23.0391C16.6941 23.2714 16.1337 23.391 15.5669 23.3898L7.08725 23.3799ZM18.7434 9.38604C18.7434 9.07418 18.6186 8.7751 18.3965 8.55459C18.1744 8.33407 17.8732 8.21019 17.5591 8.21019H15.8138V6.47736C15.7998 6.17516 15.6691 5.88993 15.4487 5.68099C15.2284 5.47204 14.9354 5.35544 14.6307 5.35544C14.326 5.35544 14.033 5.47204 13.8127 5.68099C13.5924 5.88993 13.4616 6.17516 13.4476 6.47736V8.21019H11.7023C11.5424 8.2029 11.3826 8.22788 11.2327 8.28362C11.0828 8.33936 10.9458 8.4247 10.83 8.53449C10.7142 8.64428 10.6221 8.77624 10.5591 8.92239C10.4962 9.06854 10.4637 9.22584 10.4637 9.3848C10.4637 9.54376 10.4962 9.70106 10.5591 9.84721C10.6221 9.99336 10.7142 10.1253 10.83 10.2351C10.9458 10.3449 11.0828 10.4302 11.2327 10.486C11.3826 10.5417 11.5424 10.5667 11.7023 10.5594H13.4476V12.2922C13.4616 12.5944 13.5924 12.8797 13.8127 13.0886C14.033 13.2976 14.326 13.4142 14.6307 13.4142C14.9354 13.4142 15.2284 13.2976 15.4487 13.0886C15.6691 12.8797 15.7998 12.5944 15.8138 12.2922V10.5594H17.5591C17.8728 10.5594 18.1736 10.4359 18.3956 10.2159C18.6177 9.99591 18.7427 9.69746 18.7434 9.38604ZM7.38894 2.87059V4.14793H6.10489C5.87345 4.14793 5.65148 4.23922 5.48783 4.4017C5.32417 4.56419 5.23223 4.78456 5.23223 5.01435C5.23223 5.24414 5.32417 5.46451 5.48783 5.627C5.65148 5.78948 5.87345 5.88077 6.10489 5.88077H7.39143V7.15811C7.39143 7.3879 7.48337 7.60828 7.64702 7.77076C7.81068 7.93324 8.03264 8.02453 8.26408 8.02453C8.49552 8.02453 8.71749 7.93324 8.88114 7.77076C9.0448 7.60828 9.13674 7.3879 9.13674 7.15811V5.87582H10.4158C10.6472 5.87582 10.8692 5.78453 11.0329 5.62205C11.1965 5.45956 11.2885 5.23919 11.2885 5.0094C11.2885 4.77961 11.1965 4.55924 11.0329 4.39675C10.8692 4.23427 10.6472 4.14298 10.4158 4.14298H9.12926V2.87059C9.12926 2.6408 9.03732 2.42043 8.87366 2.25794C8.71001 2.09546 8.48804 2.00417 8.2566 2.00417C8.02516 2.00417 7.8032 2.09546 7.63954 2.25794C7.47589 2.42043 7.38395 2.6408 7.38395 2.87059H7.38894ZM18.3968 0.583252C18.1985 0.583252 18.0082 0.661494 17.8679 0.800767C17.7277 0.940039 17.6488 1.12893 17.6488 1.32589V2.425H16.5418C16.3434 2.425 16.1532 2.50325 16.0129 2.64252C15.8726 2.78179 15.7938 2.97069 15.7938 3.16765C15.7938 3.36461 15.8726 3.5535 16.0129 3.69277C16.1532 3.83205 16.3434 3.91029 16.5418 3.91029H17.6488V5.0094C17.6488 5.20636 17.7277 5.39525 17.8679 5.53453C18.0082 5.6738 18.1985 5.75204 18.3968 5.75204C18.5952 5.75204 18.7855 5.6738 18.9257 5.53453C19.066 5.39525 19.1448 5.20636 19.1448 5.0094V3.91029H20.2519C20.3501 3.91029 20.4473 3.89108 20.5381 3.85376C20.6288 3.81644 20.7113 3.76173 20.7808 3.69277C20.8502 3.62381 20.9053 3.54195 20.9429 3.45184C20.9805 3.36174 20.9998 3.26517 20.9998 3.16765C20.9998 3.07012 20.9805 2.97355 20.9429 2.88345C20.9053 2.79335 20.8502 2.71148 20.7808 2.64252C20.7113 2.57356 20.6288 2.51886 20.5381 2.48154C20.4473 2.44421 20.3501 2.425 20.2519 2.425H19.1448V1.32589C19.1448 1.12893 19.066 0.940039 18.9257 0.800767C18.7855 0.661494 18.5952 0.583252 18.3968 0.583252Z" fill="white"/>
</svg>
