<svg width="93" height="20" viewBox="0 0 93 20" fill="none" xmlns="http://www.w3.org/2000/svg">
<path d="M92.1845 9.07239V7.46504H90.1887V4.96622L90.1217 4.98698L88.2103 5.57178V7.46504H85.2512V6.40963C85.2228 6.01005 85.3385 5.61352 85.5774 5.29193C85.6925 5.16564 85.8342 5.06658 85.9924 5.00194C86.1506 4.9373 86.3212 4.90869 86.4918 4.9182C86.7915 4.9222 87.087 4.98941 87.359 5.11545L87.4325 5.14832V3.45706L87.3979 3.44451C87.0392 3.334 86.6645 3.284 86.2893 3.29658C85.7418 3.28795 85.2009 3.41784 84.717 3.6742C84.2625 3.91879 83.8879 4.28909 83.6382 4.74086C83.3787 5.22108 83.2472 5.76003 83.2563 6.30582V7.46504H81.8665V9.07239H83.2563V15.8431H85.2512V9.07239H88.2103V13.3736C88.2103 15.1471 89.046 16.0438 90.6948 16.0438C90.9796 16.0422 91.2635 16.0107 91.5417 15.9499C91.7554 15.9136 91.963 15.8478 92.1586 15.7544L92.185 15.7388V14.1168L92.1036 14.1704C91.9799 14.2487 91.8446 14.3071 91.7027 14.3434C91.5748 14.383 91.4423 14.4055 91.3086 14.4105C91.1531 14.4241 90.9965 14.4034 90.8498 14.35C90.7031 14.2965 90.5699 14.2116 90.4595 14.1012C90.2495 13.7847 90.1539 13.4059 90.1887 13.0276V9.07239H92.1845ZM77.4104 14.4118C77.0921 14.4284 76.7741 14.3729 76.4801 14.2494C76.1862 14.1258 75.924 13.9375 75.7131 13.6985C75.2756 13.1217 75.0592 12.4072 75.1032 11.6845C75.0568 10.9451 75.2728 10.2129 75.7131 9.61697C75.9196 9.37617 76.1784 9.18573 76.4697 9.06016C76.761 8.9346 77.0771 8.87724 77.394 8.89245C77.7012 8.87769 78.0079 8.93223 78.2912 9.05203C78.5745 9.17183 78.8273 9.35382 79.0307 9.58453C79.4678 10.1752 79.6797 10.9023 79.6285 11.6352C79.679 12.3708 79.481 13.1019 79.0662 13.7115C78.8639 13.9491 78.6088 14.1361 78.3213 14.2576C78.0338 14.379 77.7218 14.4324 77.4104 14.4118ZM77.4991 7.26002C76.9022 7.22719 76.3048 7.31703 75.744 7.524C75.1831 7.73096 74.6706 8.05066 74.2381 8.46337C73.8335 8.90517 73.5209 9.42313 73.3186 9.98702C73.1164 10.5509 73.0284 11.1494 73.0599 11.7477C73.0312 12.3208 73.1183 12.8938 73.3159 13.4325C73.5135 13.9712 73.8176 14.4646 74.21 14.8832C74.6189 15.2759 75.1035 15.5811 75.6343 15.7803C76.165 15.9794 76.7308 16.0683 77.2971 16.0416C77.8853 16.0705 78.4731 15.977 79.0233 15.7671C79.5735 15.5571 80.0742 15.2352 80.4936 14.8218C80.8949 14.3843 81.2056 13.8718 81.4078 13.3136C81.61 12.7555 81.6998 12.1629 81.6719 11.5699C81.7348 10.4128 81.3375 9.27771 80.5667 8.41233C80.163 8.01842 79.6819 7.7127 79.1538 7.51456C78.6258 7.31642 78.0623 7.23018 77.4991 7.26131V7.26002ZM69.843 7.26131C69.0134 7.22622 68.1971 7.47846 67.5319 7.97545C67.2459 8.1926 67.0152 8.47427 66.8587 8.79749C66.7022 9.12072 66.6243 9.47635 66.6313 9.83541C66.6244 10.1911 66.6905 10.5444 66.8255 10.8735C66.9596 11.1767 67.1639 11.4436 67.4216 11.6521C67.7931 11.9314 68.2005 12.1595 68.6327 12.3303C68.9783 12.4661 69.3152 12.6229 69.6414 12.8001C69.8131 12.8897 69.9644 13.0138 70.0857 13.1647C70.1745 13.307 70.2175 13.473 70.2089 13.6405C70.2089 14.2028 69.7876 14.4771 68.9199 14.4771C68.5482 14.4682 68.1803 14.4009 67.8295 14.2777C67.4304 14.1473 67.0537 13.9563 66.7127 13.7115L66.6296 13.6522V15.5732L66.6599 15.5874C66.9991 15.7355 67.3538 15.8451 67.7175 15.914C68.0886 15.995 68.467 16.0384 68.8468 16.0438C69.7183 16.0893 70.5791 15.8358 71.2868 15.3253C71.5776 15.1022 71.8115 14.8134 71.9694 14.4827C72.1272 14.1519 72.2046 13.7885 72.1952 13.4221C72.2095 12.8993 72.0361 12.3886 71.7064 11.9826C71.2448 11.5032 70.6755 11.1406 70.0459 10.925C69.6218 10.783 69.2226 10.5755 68.8628 10.3099C68.7808 10.2245 68.7172 10.1232 68.6762 10.0121C68.6351 9.90108 68.6173 9.78276 68.6241 9.66455C68.6223 9.54796 68.649 9.4327 68.7018 9.3287C68.7545 9.22471 68.8318 9.13511 68.9269 9.06763C69.1754 8.89568 69.4742 8.81137 69.7759 8.828C70.1187 8.82963 70.4594 8.88196 70.7868 8.98329C71.1 9.07458 71.3976 9.21252 71.6696 9.39248L71.751 9.44828V7.62855L71.7198 7.61514C71.4309 7.50001 71.1304 7.4162 70.8236 7.36513C70.4997 7.30168 70.1708 7.26765 69.8408 7.26348L69.843 7.26131ZM61.4308 14.4118C61.1124 14.4284 60.7944 14.3729 60.5005 14.2494C60.2066 14.1258 59.9444 13.9375 59.7335 13.6985C59.2966 13.1222 59.0804 12.4086 59.124 11.6867C59.0776 10.9472 59.2936 10.215 59.7339 9.61913C59.9404 9.37826 60.1991 9.18776 60.4905 9.06219C60.7818 8.93662 61.0979 8.8793 61.4148 8.89461C61.7221 8.87986 62.0287 8.9344 62.312 9.05419C62.5954 9.17399 62.8481 9.35598 63.0516 9.58669C63.4886 10.1773 63.7006 10.9045 63.6494 11.6374C63.6998 12.3729 63.5018 13.1041 63.087 13.7136C62.8847 13.9513 62.6296 14.1383 62.3421 14.2598C62.0546 14.3812 61.7427 14.4337 61.4312 14.4131L61.4308 14.4118ZM61.5203 7.26218C60.9234 7.2293 60.3261 7.31912 59.7652 7.52609C59.2043 7.73305 58.6918 8.05278 58.2594 8.46553C57.8547 8.9073 57.542 9.42524 57.3397 9.98914C57.1373 10.553 57.0493 11.1516 57.0807 11.7499C57.052 12.323 57.1391 12.896 57.3368 13.4347C57.5345 13.9735 57.8387 14.4668 58.2313 14.8854C58.6401 15.2781 59.1248 15.5833 59.6555 15.7825C60.1863 15.9816 60.7521 16.0705 61.3183 16.0438C61.9066 16.0726 62.4944 15.9792 63.0446 15.7692C63.5948 15.5592 64.0954 15.2374 64.5149 14.824C64.9161 14.3865 65.2268 13.8739 65.429 13.3158C65.6313 12.7577 65.721 12.1651 65.6931 11.5721C65.756 10.4149 65.3585 9.27975 64.5875 8.41449C64.1839 8.02063 63.7028 7.71495 63.1748 7.51681C62.6468 7.31867 62.0834 7.2324 61.5203 7.26348V7.26218ZM54.0524 8.91624V7.46504H52.0817V15.8431H54.0524V11.5569C54.0242 10.9268 54.1962 10.3039 54.5438 9.77745C54.6832 9.56754 54.873 9.39595 55.0958 9.27836C55.3186 9.16078 55.5674 9.10097 55.8194 9.1044C56.0198 9.10745 56.219 9.13653 56.412 9.19091C56.5743 9.227 56.7296 9.28985 56.8713 9.37691L56.9544 9.43703V7.45077L56.9224 7.43693C56.6751 7.34856 56.4131 7.30876 56.1507 7.31971C55.6691 7.31497 55.2017 7.48249 54.8327 7.79205C54.4874 8.09538 54.2262 8.48276 54.0745 8.91667L54.0524 8.91624ZM48.5526 7.26305C47.7176 7.24622 46.8923 7.44464 46.1563 7.8392C45.4794 8.21167 44.9291 8.77766 44.5757 9.46471C44.2033 10.2117 44.0171 11.0377 44.0329 11.8723C44.0231 12.6248 44.2047 13.3675 44.5606 14.0307C44.8984 14.6592 45.4104 15.1769 46.0351 15.5217C46.6967 15.8778 47.4385 16.0581 48.1897 16.0455C49.0178 16.0721 49.8383 15.8801 50.5687 15.4888L50.5946 15.4741V13.6682L50.5116 13.7288C50.2166 13.9427 49.8918 14.1119 49.5474 14.231C49.245 14.3438 48.9259 14.4057 48.6032 14.4139C48.2624 14.4305 47.922 14.3751 47.6041 14.2512C47.2862 14.1273 46.998 13.9378 46.7584 13.695C46.2807 13.1449 46.0366 12.4301 46.078 11.7027C46.0417 10.955 46.2959 10.2223 46.7873 9.65763C47.023 9.40576 47.3099 9.20734 47.6287 9.07572C47.9476 8.9441 48.2909 8.88234 48.6356 8.89461C49.3148 8.90528 49.9725 9.13412 50.5116 9.54733L50.5942 9.60745V7.70424L50.5674 7.6891C50.2804 7.54164 49.9731 7.4377 49.6556 7.3807C49.2933 7.30398 48.9242 7.26442 48.5539 7.26261L48.5526 7.26305ZM42.6764 7.46461H40.7057V15.8431H42.6764V7.46461ZM41.7114 3.89566C41.3991 3.8907 41.0975 4.00896 40.8718 4.22483C40.7582 4.32902 40.6681 4.4562 40.6075 4.59789C40.5469 4.73959 40.5171 4.89257 40.5202 5.04667C40.5167 5.19794 40.5458 5.34818 40.6056 5.48722C40.6653 5.62625 40.7541 5.75083 40.8662 5.85251C41.0949 6.06514 41.3975 6.18027 41.7097 6.17346C42.0227 6.1797 42.3261 6.06488 42.5566 5.85294C42.6701 5.75199 42.7604 5.62764 42.8212 5.48846C42.8821 5.34927 42.9121 5.19855 42.9091 5.04667C42.9107 4.89492 42.8811 4.74446 42.8221 4.60464C42.7631 4.46483 42.6759 4.33864 42.5661 4.23391C42.4534 4.12275 42.3194 4.03549 42.1722 3.97736C42.0249 3.91924 41.8675 3.89145 41.7092 3.89566H41.7114ZM36.792 6.8465V15.8435H38.8034V4.15259H36.0199L32.4817 12.836L29.0481 4.15259H26.1501V15.8426H28.0403V6.84564H28.1052L31.7308 15.8426H33.1582L36.7276 6.84564L36.792 6.8465Z" fill="#718087"/>
<path d="M10.0662 9.51652H0.79541V0.245728H10.0662V9.51652Z" fill="#718087"/>
<path d="M20.3024 9.51652H11.0316V0.245728H20.3024V9.51652Z" fill="#718087"/>
<path d="M10.0662 19.7562H0.79541V10.4854H10.0662V19.7562Z" fill="#718087"/>
<path d="M20.3024 19.7562H11.0316V10.4854H20.3024V19.7562Z" fill="#718087"/>
</svg>
