<svg width="94" height="24" viewBox="0 0 94 24" fill="none" xmlns="http://www.w3.org/2000/svg">
<path opacity="0.8" d="M21.4546 15.7497V20.5614C19.7055 22.0995 15.526 23.0145 12.4142 23.0145C9.30646 23.0145 0.704346 21.0898 0.704346 12.0463C0.704346 3.00284 8.89209 1.05453 12.1951 1.05453C15.5021 1.05453 19.0242 1.65401 21.0641 3.00284V7.23471C21.0641 7.7632 20.335 7.71588 20.335 7.23471C20.2872 6.51297 18.3429 2.18644 13.482 2.2811C8.23468 2.38759 4.68865 6.46958 4.68865 11.8531C4.68865 17.2366 8.13507 21.8589 13.3386 21.713C15.0279 21.6657 16.789 21.1372 17.6416 20.4351L17.6615 15.7497C17.6615 14.4048 16.8368 13.9237 16.012 13.9237C15.4742 13.9237 15.4742 13.1546 16.012 13.1546H23.1041C23.638 13.1546 23.638 13.971 23.1041 13.9237C22.2833 13.9237 21.4546 14.4048 21.4546 15.7497ZM69.2703 7.23866C69.2703 7.76715 68.7364 7.71982 68.7364 7.23866C68.6846 6.51691 66.7442 2.04446 61.8834 2.14306C56.636 2.2456 53.086 6.47353 53.086 11.857C53.086 17.2405 56.4886 22.0048 61.6881 21.8629C66.8876 21.7169 69.3659 16.6213 69.5611 15.9469C69.7563 15.2725 70.095 15.3711 70.095 15.8996V19.8436C67.9594 21.3817 63.9233 23.0184 60.8156 23.0184C57.7078 23.0184 49.1057 21.0938 49.1057 12.0503C49.1057 3.00284 57.2695 0.841553 60.5725 0.841553C63.8795 0.841553 67.2303 1.65795 69.2742 3.00284V7.23866H69.2703ZM47.257 1.37004C48.0339 1.37004 48.0339 2.09179 47.257 2.09179C46.4322 2.09179 45.6075 2.57295 45.6075 3.91784L45.5118 14.4285C45.5118 19.461 41.3881 23.1604 36.3001 23.1604C31.2122 23.1604 27.2398 19.461 27.2398 14.4285V3.91784C27.2398 2.56901 26.4111 2.09179 25.5863 2.09179C24.8094 2.09179 24.8094 1.37004 25.5863 1.37004H32.778C33.5549 1.37004 33.5549 2.09179 32.778 2.09179C31.9493 2.09179 31.1245 2.57295 31.1245 3.91784L31.1165 15.6551C31.1165 19.2046 34.049 22.0837 37.6349 22.0837C41.2207 22.0837 44.1293 18.4829 44.1293 14.9373L43.954 3.91784C43.954 2.56901 43.1292 2.09179 42.3005 2.09179C41.5275 2.09179 41.5275 1.37004 42.3005 1.37004H47.257ZM93.0326 7.23866C93.0326 7.76715 92.4987 7.71982 92.4987 7.23866C92.4509 6.51691 90.5066 2.04446 85.6457 2.14306C80.3984 2.2456 76.8484 6.47353 76.8484 11.857C76.8484 17.2405 80.251 22.0048 85.4505 21.8629C90.65 21.7209 93.1283 16.6213 93.3235 15.9469C93.5187 15.2725 93.8614 15.3711 93.8614 15.8996V19.8436C91.7218 21.3817 87.6897 23.0184 84.578 23.0184C81.4702 23.0184 72.8681 21.0938 72.8681 12.0503C72.8681 3.00284 81.0319 0.841553 84.3389 0.841553C87.6419 0.841553 90.9967 1.65795 93.0366 3.00284V7.23866H93.0326Z" fill="#718087"/>
</svg>
