<svg width="83" height="26" viewBox="0 0 83 26" fill="none" xmlns="http://www.w3.org/2000/svg">
<path d="M43.8517 6.55992C43.8517 7.49319 43.1041 8.24467 42.1764 8.24467C41.2487 8.24467 40.5017 7.49319 40.5017 6.55992C40.5017 5.62666 41.2232 4.87518 42.1764 4.87518C43.1304 4.90107 43.8517 5.65281 43.8517 6.55992V6.55992ZM36.9457 9.95583V10.3707C36.9457 10.3707 36.1472 9.3333 34.4464 9.3333C31.638 9.3333 29.4474 11.4849 29.4474 14.4657C29.4474 17.4209 31.6123 19.5982 34.4464 19.5982C36.1729 19.5982 36.9457 18.5354 36.9457 18.5354V18.9759C36.9457 19.1833 37.1007 19.3384 37.3066 19.3384H39.3935V9.59174H37.3066C37.1007 9.59252 36.9457 9.7743 36.9457 9.95583V9.95583ZM36.9457 16.2025C36.5596 16.773 35.7863 17.2655 34.8588 17.2655C33.2098 17.2655 31.9469 16.2287 31.9469 14.4657C31.9469 12.7031 33.2098 11.6662 34.8588 11.6662C35.7608 11.6662 36.5853 12.1846 36.9457 12.7289V16.2025ZM40.9398 9.59251H43.4133V19.3392H40.9398V9.59251V9.59251ZM77.8906 9.33305C76.1899 9.33305 75.3909 10.3704 75.3909 10.3704V4.90107H72.9174V19.3392H75.0047C75.2109 19.3392 75.3651 19.1577 75.3651 18.9762V18.5357C75.3651 18.5357 76.1642 19.5984 77.8644 19.5984C80.6733 19.5984 82.8634 17.4217 82.8634 14.4665C82.8634 11.5113 80.6733 9.33305 77.8906 9.33305V9.33305ZM77.4783 17.2394C76.5245 17.2394 75.7775 16.7474 75.3909 16.1766V12.703C75.7775 12.1846 76.602 11.6403 77.4783 11.6403C79.1273 11.6403 80.3899 12.6772 80.3899 14.4398C80.3899 16.2025 79.1275 17.2394 77.4783 17.2394ZM71.6292 13.5589V19.3651H69.1552V13.8437C69.1552 12.2369 68.6399 11.5885 67.2493 11.5885C66.5023 11.5885 65.729 11.9775 65.2386 12.5479V19.3395H62.7656V9.59278H64.7233C64.9295 9.59278 65.0842 9.7743 65.0842 9.95583V10.3707C65.8057 9.61867 66.7589 9.3333 67.7121 9.3333C68.7946 9.3333 69.6966 9.64482 70.4181 10.2668C71.2938 10.9927 71.6292 11.9257 71.6292 13.5589V13.5589ZM56.7609 9.33305C55.0606 9.33305 54.2616 10.3704 54.2616 10.3704V4.90107H51.7881V19.3392H53.875C54.0812 19.3392 54.2359 19.1577 54.2359 18.9762V18.5357C54.2359 18.5357 55.0349 19.5984 56.7351 19.5984C59.544 19.5984 61.7342 17.4217 61.7342 14.4665C61.7599 11.5111 59.5698 9.33305 56.7609 9.33305V9.33305ZM56.3485 17.2394C55.3953 17.2394 54.6482 16.7474 54.2616 16.1766V12.703C54.6482 12.1846 55.4728 11.6403 56.3485 11.6403C57.998 11.6403 59.2604 12.6772 59.2604 14.4398C59.2604 16.2025 57.998 17.2394 56.3485 17.2394ZM49.6492 9.33305C50.3962 9.33305 50.7829 9.46304 50.7829 9.46304V11.7698C50.7829 11.7698 48.7215 11.0698 47.4334 12.5477V19.3649H44.9593V9.59251H47.0467C47.2529 9.59251 47.4071 9.77404 47.4071 9.95557V10.3704C47.8715 9.82583 48.8764 9.33305 49.6492 9.33305V9.33305ZM23.9593 18.4578C23.8306 18.1468 23.7016 17.8099 23.5729 17.5245C23.3665 17.0581 23.1603 16.6171 22.9803 16.2025L22.9546 16.1766C21.1764 12.2882 19.2699 8.34851 17.2598 4.4606L17.1825 4.3047C16.9711 3.90138 16.7651 3.49522 16.5645 3.08634C16.3066 2.61944 16.0491 2.12743 15.6368 1.66054C14.8123 0.623695 13.6268 0.0532227 12.3645 0.0532227C11.0758 0.0532227 9.91645 0.623698 9.06646 1.60849C8.67982 2.07487 8.39615 2.5674 8.13873 3.03429C7.93763 3.44292 7.73159 3.84907 7.52067 4.25266L7.44319 4.40854C5.45902 8.29645 3.52659 12.2364 1.74862 16.1246L1.72262 16.1761C1.54243 16.5915 1.33598 17.032 1.12979 17.4981C1.00108 17.7834 0.872375 18.0944 0.743666 18.4313C0.40851 19.3902 0.305281 20.2976 0.434504 21.2311C0.71792 23.1753 2.00603 24.8078 3.78427 25.5341C4.45432 25.8195 5.15012 25.949 5.8714 25.949C6.07759 25.949 6.33501 25.9231 6.54146 25.8969C7.39197 25.7934 8.26795 25.5085 9.11846 25.016C10.1749 24.4196 11.1798 23.5646 12.3135 22.3203C13.4472 23.5646 14.4779 24.4196 15.5086 25.016C16.3593 25.5085 17.2351 25.7934 18.0853 25.8969C18.2915 25.9234 18.5494 25.949 18.7556 25.949C19.4772 25.949 20.1984 25.8195 20.8425 25.5341C22.6465 24.8078 23.9088 23.1495 24.1925 21.2311C24.3972 20.324 24.2942 19.4172 23.9593 18.4578V18.4578ZM12.3385 19.8056C10.9469 18.0429 10.0449 16.3841 9.736 14.9847C9.60729 14.3883 9.58129 13.8699 9.65877 13.4033C9.71 12.9884 9.86496 12.6254 10.0712 12.3144C10.5608 11.6149 11.3853 11.1739 12.3387 11.1739C13.2925 11.1739 14.1427 11.5888 14.6066 12.3144C14.8128 12.6254 14.9672 12.9887 15.0192 13.4033C15.0962 13.8702 15.0704 14.4142 14.9417 14.9847C14.6316 16.3582 13.7296 18.0173 12.3385 19.8056ZM22.6192 21.024C22.439 22.3718 21.537 23.5386 20.2746 24.0571C19.6563 24.316 18.986 24.394 18.3165 24.316C17.6724 24.2381 17.0278 24.0307 16.3583 23.6422C15.4306 23.1233 14.5031 22.3203 13.4207 21.1275C15.1212 19.0282 16.1519 17.1096 16.5385 15.3993C16.7189 14.5955 16.7449 13.8699 16.6672 13.1956C16.5645 12.5477 16.3323 11.9513 15.9717 11.4329C15.1724 10.266 13.8323 9.59251 12.3382 9.59251C10.8442 9.59251 9.50406 10.2925 8.7053 11.4329C8.34466 11.9513 8.11247 12.5477 8.0095 13.1956C7.90654 13.8699 7.93202 14.6214 8.13821 15.3993C8.52459 17.1096 9.58104 19.0539 11.2558 21.1535C10.1994 22.3459 9.24588 23.1497 8.31815 23.6681C7.64809 24.0571 7.00429 24.2645 6.36024 24.3419C5.6647 24.4199 4.99439 24.316 4.40181 24.083C3.13944 23.5646 2.23745 22.3977 2.05726 21.0499C1.98004 20.402 2.03126 19.7541 2.28919 19.0282C2.36616 18.7687 2.49538 18.5098 2.62409 18.1988C2.80454 17.784 3.01022 17.343 3.21667 16.9025L3.24267 16.851C5.02039 12.9884 6.92707 9.04845 8.91124 5.21233L8.98846 5.05645C9.19491 4.66802 9.4011 4.25317 9.60704 3.86423C9.81323 3.44939 10.0449 3.06044 10.3286 2.72328C10.8697 2.1018 11.5909 1.76438 12.39 1.76438C13.189 1.76438 13.9103 2.1018 14.4514 2.72328C14.735 3.06122 14.9667 3.45016 15.1729 3.86423C15.3793 4.25317 15.5855 4.66802 15.7912 5.05645L15.8687 5.21233C17.8226 9.06439 19.704 12.9533 21.5118 16.8768V16.9027C21.7182 17.3181 21.8984 17.7842 22.1046 18.1996C22.2333 18.5101 22.3623 18.769 22.4395 19.0285C22.6452 19.7018 22.7224 20.3502 22.6192 21.024V21.024Z" fill="#718087"/>
</svg>
