<svg width="48" height="19" viewBox="0 0 48 19" fill="none" xmlns="http://www.w3.org/2000/svg">
<path fill-rule="evenodd" clip-rule="evenodd" d="M14.5725 5.58783C14.5725 5.58783 15.8505 3.90387 18.8179 3.91951C21.7863 3.93514 24.5383 5.9214 24.4743 9.34002C24.4679 9.65559 24.4409 9.95694 24.3946 10.2455C25.1886 8.10809 29.11 7.81621 30.2811 7.80863C30.9701 7.80863 33.037 7.80105 33.037 7.80105C33.0477 6.41323 32.6081 5.48454 30.2015 5.44284C28.1501 5.40494 27.6232 6.42886 27.499 6.83067H24.9857C25.6262 3.53334 30.3646 3.93514 30.3646 3.93514C35.3005 4.12846 35.4218 6.66672 35.4789 7.86217L35.4853 7.99011V14.5938L33.2981 14.6051L33.2 12.8273C32.2675 13.9531 31.0128 14.5819 28.81 14.5938C26.6657 14.6047 23.9419 13.7148 24.2543 10.8866C23.5746 13.305 21.4041 14.5938 18.7684 14.5938C15.6195 14.5938 14.5424 12.9112 14.5424 12.9112L14.4434 14.5938H12.196V9.74182H2.9201C2.9201 9.74182 3.05303 13.0401 6.44163 13.1031C9.07622 13.15 9.55365 11.376 9.55365 11.376L11.9874 11.368C11.9874 11.368 11.7293 14.5938 6.43097 14.5938C0.267054 14.5938 0.555256 9.45374 0.555256 9.45374C0.525198 8.3123 0.547497 3.91951 6.37369 3.91951C11.2495 3.91951 12.0806 7.2481 12.196 8.87189V0.0379639H14.5725V5.58783ZM14.588 9.29833C14.588 9.29833 14.5269 13.1159 18.2764 13.0704C22.0212 13.0245 22.0289 9.37793 22.0289 9.37793C22.0289 9.37793 22.0852 5.35282 18.2687 5.44711C14.4522 5.54187 14.588 9.29833 14.588 9.29833ZM6.51732 5.42436C3.16657 5.42436 2.99967 8.30188 2.99967 8.30188H9.85349C9.85349 8.30188 9.85349 5.42057 6.51732 5.42436ZM26.6984 11.3381C26.8392 13.1538 29.2234 13.1495 29.2234 13.1495C33.495 13.2021 33.0593 9.31775 33.0622 9.31775L30.3646 9.3206C30.3646 9.3206 26.551 9.4002 26.6984 11.3381Z" fill="#666666"/>
<path d="M33.9695 3.91951H36.6905L40.6749 11.8612L44.67 3.91951H47.1299L39.9238 18.4753H37.2902L39.3756 14.1427L33.9695 3.91951Z" fill="#666666"/>
</svg>
