<svg width="74" height="16" viewBox="0 0 74 16" fill="none" xmlns="http://www.w3.org/2000/svg">
<path d="M12.1973 0.237915H14.9963V9.3133C14.9963 14.0881 12.0117 15.7641 7.68182 15.7641C3.36737 15.7641 0.382812 14.0881 0.382812 9.3133V0.601563C0.382812 0.34859 0.506525 0.237915 0.753949 0.237915H3.55293V9.171C3.55293 12.0327 4.79005 13.2186 7.68182 13.2186C10.5891 13.2186 11.8262 12.0327 11.8262 9.171V0.601563C11.8262 0.34859 11.9499 0.237915 12.1973 0.237915ZM43.8831 2.72021V6.54641H50.9656C51.0893 6.54641 51.1357 6.60965 51.0893 6.73614L50.3161 8.69668C50.2388 8.87059 50.1305 8.94965 49.8986 8.94965H45.7387C44.3779 8.94965 43.8831 9.37654 43.8831 10.3094V13.013H53.4707C53.5944 13.013 53.6408 13.0763 53.5944 13.2027L52.7903 15.2423C52.713 15.4163 52.6048 15.4953 52.3728 15.4953H41.8727C41.0686 15.4953 40.7593 15.2107 40.7593 14.5941V1.29724C40.7593 0.55413 41.1614 0.237915 42.2129 0.237915H53.4707C53.5944 0.237915 53.6408 0.301158 53.5944 0.411833L52.7903 2.46723C52.713 2.64115 52.6048 2.72021 52.3728 2.72021H43.8831ZM34.9913 11.2738C34.9913 14.3253 32.8881 15.4953 29.9345 15.4953H22.1097C21.2901 15.4953 20.9963 15.2107 20.9963 14.5941V1.29724C20.9963 0.55413 21.3829 0.237915 22.4499 0.237915H28.8057C31.5892 0.237915 34.2799 0.728049 34.2799 4.11155C34.2799 5.56614 33.7696 6.79938 32.5479 7.44762C34.2335 7.90614 34.9913 9.45559 34.9913 11.2738ZM24.0737 6.59384H29.0376C30.6768 6.59384 31.1407 5.9456 31.1407 4.6175C31.1407 3.28939 30.6768 2.65696 29.0376 2.65696H24.0737V6.59384ZM31.8521 10.9892C31.8521 9.58208 31.3727 8.8864 29.6098 8.8864H25.9448C24.584 8.8864 24.0737 9.3133 24.0737 10.2461V13.0763H29.6098C31.3727 13.0763 31.8521 12.3806 31.8521 10.9892ZM72.9863 15.4953H70.1409C69.909 15.4953 69.8162 15.4004 69.7234 15.2423L66.7079 9.67694H63.9399C62.579 9.67694 62.0687 10.1038 62.0687 11.0367V15.4953H59.3471C59.0996 15.4953 58.9759 15.3688 58.9759 15.1317V1.29724C58.9759 0.55413 59.378 0.237915 60.4295 0.237915H66.8162C70.543 0.237915 72.7853 1.23399 72.7853 4.93371C72.7853 7.79546 71.4399 8.91803 69.7698 9.36073L73.1255 15.2265C73.1873 15.3214 73.1873 15.4953 72.9863 15.4953ZM69.6461 4.99696C69.6461 3.4475 69.2286 2.68858 67.2801 2.68858H62.0687V7.30533H67.2801C69.2286 7.30533 69.6461 6.56222 69.6461 4.99696Z" fill="#718087"/>
</svg>
