<svg width="70" height="24" viewBox="0 0 70 24" fill="none" xmlns="http://www.w3.org/2000/svg">
<path d="M14.5689 11.5178C15.7141 11.6098 16.6761 12.07 17.5007 12.9444C18.3253 13.8187 18.7375 15.0152 18.7375 16.5338C18.7375 18.3745 18.142 19.8931 16.9052 20.9976C15.6683 22.102 13.9275 22.6542 11.5913 22.6542H0.322144V0.841553H11.5455C13.5153 0.841553 15.1186 1.39377 16.3096 2.45219C17.5007 3.55663 18.0962 4.9832 18.0962 6.77791C18.0962 8.15846 17.7297 9.21688 16.951 10.0452C16.1722 10.8735 15.3934 11.2877 14.5231 11.3797L14.5689 11.5178ZM5.68185 9.86114H10.3544C11.1332 9.86114 11.7745 9.63105 12.2784 9.17086C12.7365 8.71068 13.0114 8.15846 13.0114 7.37615C13.0114 6.68588 12.7823 6.17967 12.3242 5.76551C11.8661 5.35135 11.2706 5.16727 10.5835 5.16727H5.68185V9.86114ZM10.6293 18.3285C11.4538 18.3285 12.141 18.0984 12.5991 17.6842C13.0572 17.2701 13.2862 16.6718 13.2862 15.8895C13.2862 15.1532 13.0572 14.601 12.5533 14.1869C12.0952 13.7727 11.4538 13.5426 10.7209 13.5426H5.68185V18.3285H10.6293ZM37.2904 22.6542H32.1139V21.0896C30.8312 22.4702 29.1363 23.1604 27.1207 23.1604C25.1967 23.1604 23.685 22.5162 22.5397 21.2737C21.3945 20.0312 20.799 18.3745 20.799 16.3497V6.31773H25.9296V15.2453C25.9296 16.2117 26.2045 16.994 26.7084 17.5922C27.2123 18.1905 27.8994 18.4666 28.724 18.4666C29.7776 18.4666 30.6022 18.0984 31.1977 17.3621C31.7932 16.6258 32.0681 15.4754 32.0681 13.9107V6.31773H37.2446L37.2904 22.6542ZM53.2779 22.6542H39.535V21.6878L45.9942 10.4594H39.7183V6.31773H53.1862V7.28411L46.7271 18.5126H53.232V22.6542H53.2779ZM69.2195 22.6542H55.5225V21.6878L61.9358 10.4594H55.6599V6.31773H69.1279V7.28411L62.6688 18.5126H69.1737L69.2195 22.6542Z" fill="#718087"/>
</svg>
