<svg width="49" height="26" viewBox="0 0 49 26" fill="none" xmlns="http://www.w3.org/2000/svg">
<path d="M33.4055 19.534C32.8562 19.236 32.2406 19.0812 31.6157 19.0839C30.2404 19.0839 29.2861 20.0408 29.2861 21.3325C29.2861 22.5853 30.1992 23.5833 31.6157 23.5833C32.2402 23.5847 32.8552 23.431 33.4055 23.1359V25.3986C32.777 25.5912 32.1241 25.692 31.4668 25.698C29.0739 25.698 26.9734 24.0484 26.9734 21.3314C26.9734 18.8145 28.8738 16.9681 31.4668 16.9681C32.1247 16.9699 32.7784 17.0719 33.4055 17.2707V19.534ZM11.1996 19.534C10.6514 19.2355 10.0366 19.0806 9.41249 19.0839C8.03445 19.0839 7.08093 20.0408 7.08093 21.3325C7.08093 22.5853 7.99473 23.5833 9.41249 23.5833C10.0362 23.5853 10.6504 23.4315 11.1996 23.1359V25.3986C10.5706 25.5919 9.91682 25.6928 9.2588 25.698C6.86796 25.698 4.77022 24.0484 4.77022 21.3314C4.77022 18.8145 6.67058 16.9681 9.2595 16.9681C9.91785 16.9693 10.5721 17.0714 11.1996 17.2707V19.534ZM40.0977 19.1156C39.8066 19.1128 39.5179 19.1684 39.2486 19.279C38.9793 19.3897 38.735 19.5532 38.5299 19.7599C38.3249 19.9665 38.1633 20.2122 38.0548 20.4823C37.9463 20.7525 37.8931 21.0416 37.8982 21.3327C37.8928 21.6239 37.9459 21.9133 38.0543 22.1836C38.1627 22.454 38.3242 22.6999 38.5292 22.9068C38.7343 23.1137 38.9787 23.2773 39.2481 23.3881C39.5175 23.4988 39.8064 23.5545 40.0977 23.5517C40.389 23.5544 40.6779 23.4987 40.9473 23.3879C41.2167 23.2771 41.4613 23.1135 41.6664 22.9066C41.8715 22.6998 42.0332 22.454 42.1417 22.1836C42.2503 21.9133 42.3036 21.624 42.2985 21.3327C42.3034 21.0416 42.2499 20.7524 42.1412 20.4823C42.0325 20.2122 41.8708 19.9666 41.6657 19.76C41.4606 19.5534 41.2162 19.3899 40.9469 19.2792C40.6776 19.1685 40.3888 19.1129 40.0977 19.1156ZM44.5527 21.3327C44.5527 23.7444 42.6907 25.6986 40.0984 25.6986C37.5061 25.6986 35.6454 23.7444 35.6454 21.332C35.6454 18.9249 37.5053 16.9687 40.0977 16.9687C42.6901 16.9687 44.5527 18.9247 44.5527 21.3327ZM24.3191 19.0346C24.2875 19.0247 23.3919 18.7772 22.656 18.7772C21.8036 18.7772 21.3399 19.0629 21.3399 19.468C21.3399 19.9815 21.9653 20.1606 22.315 20.2712L22.902 20.4579C24.2834 20.897 24.9121 21.8426 24.9121 22.8697C24.9121 24.9876 23.0496 25.6992 21.4215 25.6992C20.6508 25.6918 19.8824 25.6147 19.1256 25.4688V23.5285C19.3129 23.5757 20.2052 23.8426 21.1345 23.8426C22.1931 23.8426 22.6797 23.5326 22.6797 23.0555C22.6797 22.6282 22.2585 22.3816 21.7308 22.2158C21.6028 22.1727 21.4087 22.1121 21.2767 22.069C20.092 21.6943 19.1041 20.9975 19.1041 19.6026C19.1041 18.0258 20.2847 16.9671 22.2457 16.9671C22.9448 16.9766 23.6406 17.0666 24.3191 17.2352V19.0346Z" fill="#666666"/>
<path d="M16.2514 25.5497H14.124V17.1185H16.2514V25.5497Z" fill="#666666"/>
<path d="M2.20359 7.31382C2.40155 7.51102 2.51319 7.77872 2.51401 8.05817L2.5141 10.2712C2.50715 10.5467 2.39281 10.8086 2.19546 11.001C1.99812 11.1934 1.73341 11.3011 1.4578 11.301C1.18219 11.3011 0.917469 11.1934 0.720127 11.001C0.522786 10.8086 0.408439 10.5467 0.401489 10.2712V8.05744C0.402598 7.77804 0.514448 7.51053 0.712514 7.31348C0.91058 7.11643 1.1787 7.00591 1.4581 7.00625C1.73753 7.00601 2.00563 7.11662 2.20359 7.31382Z" fill="#666666"/>
<path d="M8.23496 4.74995C8.28804 4.8781 8.31536 5.01546 8.31536 5.15419V10.2715C8.31536 10.5517 8.20407 10.8204 8.00598 11.0185C7.80788 11.2166 7.53921 11.3279 7.25906 11.3279C6.97891 11.3279 6.71023 11.2166 6.51213 11.0185C6.31404 10.8204 6.20275 10.5517 6.20275 10.2715V5.15419C6.20275 5.01546 6.23008 4.8781 6.28316 4.74995C6.33625 4.6218 6.41405 4.50539 6.51214 4.4073C6.61023 4.30921 6.72667 4.2314 6.85483 4.17833C6.98299 4.12527 7.12035 4.09798 7.25906 4.09798C7.39777 4.09798 7.53512 4.12527 7.66328 4.17833C7.79144 4.2314 7.90788 4.30921 8.00597 4.4073C8.10406 4.50539 8.18187 4.6218 8.23496 4.74995Z" fill="#666666"/>
<path d="M13.807 0.435127C14.005 0.632471 14.1166 0.900226 14.1174 1.17972V12.3748C14.1104 12.6503 13.9961 12.9122 13.7987 13.1045C13.6014 13.2969 13.3367 13.4045 13.0611 13.4045C12.7855 13.4045 12.5208 13.2969 12.3235 13.1045C12.1262 12.9122 12.0118 12.6503 12.0048 12.3748V1.17972C12.0057 0.900128 12.1174 0.632276 12.3155 0.434932C12.5135 0.237588 12.7818 0.126929 13.0614 0.127123C13.3409 0.127026 13.6091 0.237782 13.807 0.435127Z" fill="#666666"/>
<path d="M19.8387 4.7498C19.8917 4.87805 19.9189 5.01542 19.9188 5.15419L19.9192 5.15268V10.2707C19.9192 10.5508 19.8079 10.8195 19.6098 11.0176C19.4117 11.2157 19.143 11.327 18.8629 11.327C18.5827 11.327 18.3141 11.2157 18.116 11.0176C17.9179 10.8195 17.8066 10.5508 17.8066 10.2707V5.15326C17.8066 5.01454 17.8339 4.87723 17.887 4.74907C17.9401 4.62092 18.0179 4.50446 18.116 4.40638C18.214 4.30829 18.3305 4.23052 18.4587 4.17746C18.5868 4.12439 18.7242 4.09706 18.8629 4.09706C19.0016 4.09711 19.139 4.12449 19.2672 4.17765C19.3954 4.23081 19.5118 4.30868 19.6099 4.40686C19.7079 4.50505 19.7857 4.62156 19.8387 4.7498Z" fill="#666666"/>
<path d="M25.4068 7.31489C25.6037 7.51214 25.7142 7.7795 25.7141 8.05817V10.2712C25.7141 10.5504 25.6031 10.8183 25.4057 11.0157C25.2082 11.2131 24.9404 11.3241 24.6611 11.3241C24.3819 11.3241 24.1141 11.2131 23.9166 11.0157C23.7192 10.8183 23.6082 10.5504 23.6082 10.2712V8.05744C23.6093 7.77814 23.721 7.51068 23.9189 7.31362C24.1169 7.11657 24.3848 7.00606 24.6641 7.00625C24.9428 7.00664 25.21 7.11764 25.4068 7.31489Z" fill="#666666"/>
<path d="M31.2004 4.42674C31.3971 4.61853 31.5111 4.87956 31.5181 5.15419V10.2715C31.5181 10.4098 31.4909 10.5467 31.438 10.6745C31.385 10.8022 31.3075 10.9183 31.2097 11.0161C31.1119 11.1139 30.9959 11.1914 30.8681 11.2443C30.7404 11.2973 30.6035 11.3245 30.4652 11.3245C30.1859 11.3244 29.9182 11.2135 29.7207 11.016C29.5232 10.8186 29.4123 10.5508 29.4123 10.2715V5.15419C29.4192 4.87956 29.5332 4.61853 29.7299 4.42674C29.9266 4.23496 30.1905 4.12761 30.4652 4.12761C30.7399 4.12761 31.0037 4.23496 31.2004 4.42674Z" fill="#666666"/>
<path d="M37.0151 0.435224C37.2125 0.632666 37.3235 0.90047 37.3235 1.17972V12.3748C37.3318 12.5648 37.2885 12.7536 37.1982 12.921C37.1079 13.0884 36.9741 13.2283 36.8107 13.3257C36.6474 13.4233 36.4607 13.4748 36.2705 13.4748C36.0803 13.4748 35.8936 13.4233 35.7303 13.3257C35.567 13.2282 35.4331 13.0884 35.3428 12.9209C35.2526 12.7535 35.2093 12.5648 35.2176 12.3748V1.17972C35.2176 0.90047 35.3286 0.632666 35.526 0.435224C35.7235 0.237782 35.9913 0.126831 36.2705 0.126831C36.5498 0.126831 36.8176 0.237782 37.0151 0.435224Z" fill="#666666"/>
<path d="M43.0455 4.74844C43.0993 4.87693 43.1272 5.01483 43.1275 5.15419V10.2715C43.1274 10.411 43.0997 10.5491 43.046 10.6778C42.9922 10.8065 42.9135 10.9233 42.8144 11.0214C42.7153 11.1194 42.5977 11.1969 42.4685 11.2494C42.3392 11.3018 42.2009 11.328 42.0614 11.3267C41.923 11.3266 41.786 11.2992 41.6581 11.2461C41.5303 11.1931 41.4142 11.1153 41.3164 11.0173C41.2187 10.9193 41.1412 10.803 41.0884 10.6751C41.0356 10.5471 41.0086 10.41 41.0088 10.2715V5.15351C41.0088 4.8743 41.1197 4.60645 41.3171 4.40896C41.5145 4.21147 41.7822 4.10042 42.0614 4.10027C42.2008 4.09901 42.339 4.12527 42.4681 4.17765C42.5972 4.23003 42.7147 4.30741 42.8138 4.40535C42.9129 4.50329 42.9916 4.61995 43.0455 4.74844Z" fill="#666666"/>
<path d="M48.6121 7.31289C48.8098 7.51058 48.9208 7.77863 48.9208 8.05817L48.9201 10.2713C48.9203 10.4097 48.8932 10.547 48.8404 10.675C48.7875 10.803 48.71 10.9194 48.6122 11.0174C48.5144 11.1155 48.3982 11.1933 48.2704 11.2464C48.1425 11.2996 48.0054 11.327 47.8669 11.3272C47.7283 11.3271 47.5912 11.2997 47.4632 11.2466C47.3353 11.1935 47.219 11.1156 47.1211 11.0176C47.0233 10.9195 46.9457 10.8032 46.8928 10.6751C46.8399 10.5471 46.8128 10.4098 46.813 10.2713V8.05817C46.813 7.77863 46.924 7.51058 47.1216 7.31289C47.3193 7.11521 47.5874 7.00421 47.8669 7.00416C48.1464 7.00421 48.4145 7.11521 48.6121 7.31289Z" fill="#666666"/>
<path d="M47.7028 24.5706H47.3268Z" fill="#666666"/>
<path d="M47.3268 24.5706V25.5485Z" fill="#666666"/>
<path d="M47.3268 25.5485H47.1718Z" fill="#666666"/>
<path d="M47.1718 25.5485V24.5714Z" fill="#666666"/>
<path d="M47.1718 24.5714H46.7945Z" fill="#666666"/>
<path d="M46.7945 24.5714V24.4385Z" fill="#666666"/>
<path d="M46.7945 24.4385L47.7028 24.4384Z" fill="#666666"/>
<path d="M48.0235 24.4384L48.3558 25.3489Z" fill="#666666"/>
<path d="M48.3558 25.3489H48.3612Z" fill="#666666"/>
<path d="M48.3612 25.3489L48.6826 24.4392Z" fill="#666666"/>
<path d="M48.6826 24.4392H48.9198Z" fill="#666666"/>
<path d="M48.9198 24.4392V25.5483Z" fill="#666666"/>
<path d="M48.9198 25.5483H48.7614Z" fill="#666666"/>
<path d="M48.7614 25.5483V24.6387Z" fill="#666666"/>
<path d="M48.7614 24.6387H48.756Z" fill="#666666"/>
<path d="M48.756 24.6387L48.4191 25.5483Z" fill="#666666"/>
<path d="M48.4191 25.5483H48.2731Z" fill="#666666"/>
<path d="M48.2731 25.5483L47.9438 24.6387Z" fill="#666666"/>
<path d="M47.9438 24.6387H47.9364Z" fill="#666666"/>
<path d="M47.9364 24.6387V25.5483Z" fill="#666666"/>
<path d="M47.9364 25.5483H47.7814Z" fill="#666666"/>
<path d="M47.7814 25.5483L47.7817 24.4384Z" fill="#666666"/>
<path d="M48.0235 24.4384L48.3558 25.3489H48.3612L48.6826 24.4392H48.9198V25.5483H48.7614V24.6387H48.756L48.4191 25.5483H48.2731L47.9438 24.6387H47.9364V25.5483H47.7814L47.7817 24.4384H48.0235Z" fill="#666666"/>
<path d="M47.7028 24.5706H47.3268V25.5485H47.1718V24.5714H46.7945V24.4385L47.7028 24.4384V24.5706Z" fill="#666666"/>
</svg>
