<svg width="96" height="18" viewBox="0 0 96 18" fill="none" xmlns="http://www.w3.org/2000/svg">
<path d="M32.683 0.217991V7.19097H22.9684V0.217991L19.4302 0.214844V17.7967H22.9684V10.2435H32.683V17.7967H36.227V0.217991H32.683Z" fill="#718087"/>
<path d="M79.7533 0.218628V17.7931H95.2762L93.3102 14.6992H83.3015V10.2441H92.993V7.26407H83.3015V3.24013H93.2934L95.2195 0.218628H79.7533Z" fill="#718087"/>
<path d="M6.27833 0.213867C2.59781 0.213867 0.738892 2.45138 0.738892 5.70709V12.27C0.738892 16.0376 3.13446 17.7968 6.25994 17.7968L17.3609 17.7957L15.3029 14.582H6.94575C5.17033 14.582 4.39684 13.9403 4.39684 11.9533V5.99905C4.39684 4.07818 5.04798 3.32885 6.993 3.32885H15.3901L17.3661 0.213867H6.27833Z" fill="#718087"/>
<path d="M64.2248 0.209643C62.0991 0.209643 59.9205 1.48725 59.9205 4.77341V5.61779C59.9205 9.04363 62.0167 10.3506 64.114 10.3596H71.4756C72.2401 10.3596 72.8613 10.4866 72.8613 11.7789L72.8603 13.2718C72.8409 14.4329 72.2617 14.6986 71.4493 14.6986H61.7646L59.7808 17.7926H71.6772C74.5459 17.7926 76.4936 16.3653 76.4936 13.0686V11.8572C76.4936 8.66976 74.684 7.16372 71.8783 7.16372H64.8492C64.0699 7.16372 63.5269 6.95105 63.5269 5.79685V4.58121C63.5269 3.5982 63.8992 3.23955 64.8071 3.23955L74.0302 3.23588L75.9579 0.205444L64.2248 0.209643Z" fill="#718087"/>
<path d="M46.507 0.218628L38.1708 17.7963H42.1107L43.7344 14.1662H52.7931L54.4115 17.7963H58.3688L50.0132 0.218628H46.507ZM48.2551 3.86817L51.4583 11.1741H45.0724L48.2551 3.86817Z" fill="#718087"/>
</svg>
