<svg width="21" height="21" viewBox="0 0 21 21" fill="none" xmlns="http://www.w3.org/2000/svg">
<path d="M20.63 6.44025L18.4606 5.12845V0.672811C18.4606 0.531915 18.3465 0.418031 18.2058 0.418031H14.9897C14.8491 0.418031 14.7351 0.531915 14.7351 0.672811V2.87605L10.6965 0.434356C10.6708 0.419003 10.6427 0.409092 10.6137 0.404427C10.5488 0.389269 10.4808 0.399958 10.4236 0.434356L0.497701 6.44025C0.42152 6.48611 0.374878 6.56909 0.374878 6.6581V8.7595C0.374878 8.85084 0.423657 8.93519 0.502754 8.98047C0.582045 9.02594 0.679409 9.02556 0.758117 8.9795L2.25298 8.10555V18.371H1.5417C1.40099 18.371 1.28711 18.4849 1.28711 18.6258V20.521C1.28711 20.6617 1.40099 20.7758 1.5417 20.7758H19.586C19.7267 20.7758 19.8408 20.6617 19.8408 20.521V18.6258C19.8408 18.4849 19.7267 18.371 19.586 18.371H18.8747V8.10613L20.3698 8.9795C20.4094 9.00262 20.4537 9.01428 20.4982 9.01428C20.542 9.01428 20.5857 9.00301 20.6249 8.98047C20.7042 8.93519 20.7528 8.85084 20.7528 8.7595V6.6581C20.7528 6.56909 20.7062 6.48611 20.63 6.44025V6.44025ZM15.2444 0.927397H17.951V4.82042L15.2444 3.18408V0.927397ZM19.3312 20.2662H1.79648V18.8804H19.3312V20.2662ZM12.8564 18.371H8.27131V10.4151H12.8564V18.371ZM18.3653 18.371H13.3659V10.1603C13.3659 10.0194 13.2519 9.90553 13.1112 9.90553H8.01653C7.87602 9.90553 7.76195 10.0194 7.76195 10.1603V18.371H2.76235V7.80763L10.5601 3.2484L18.3653 7.8084V18.371ZM20.2434 8.31582L10.6885 2.7334C10.6489 2.71027 10.6044 2.69861 10.5601 2.69861C10.5156 2.69861 10.4712 2.71027 10.4314 2.7334L0.884244 8.31544V6.80153L10.5601 0.947414L20.2434 6.80153V8.31582Z" fill="#31353B"/>
</svg>
